<mxfile host="app.diagrams.net" modified="2023-10-11T03:09:43.746Z" agent="Mozilla/5.0 (Macintosh; Intel Mac OS X 10_15_7) AppleWebKit/537.36 (KHTML, like Gecko) Chrome/117.0.0.0 Safari/537.36" version="22.0.4" etag="PPA-K5nNw8-RkV1bZp-O" type="github">
  <diagram name="Page-1" id="KlooioBmAc9g9WTE4Y42">
    <mxGraphModel>
      <root>
        <mxCell id="0" />
        <mxCell id="1" parent="0" />
      </root>
    </mxGraphModel>
  </diagram>
</mxfile>
